<svg data-v-70b83f88="" version="1.0" xmlns="http://www.w3.org/2000/svg" xmlns:xlink="http://www.w3.org/1999/xlink" width="100%" height="100%" viewBox="0 0 340.000000 250.000000" preserveAspectRatio="xMidYMid meet" color-interpolation-filters="sRGB" style="margin: auto;">   <g data-v-70b83f88="" class="iconmbgsvg" transform="translate(23.315505981445312,2.88330078125)"><g fill="#333" hollow-target="textNormalTran"><g opacity="0.55" transform="translate(2.6844940185546875,0)"><g><rect fill="#333" fill-opacity="0" stroke-width="2" x="0" y="0" width="288.00000000000017" height="244.23337856173688" class="image-rect"></rect> <svg x="0" y="0" width="288.00000000000017" height="244.23337856173688" filtersec="colorsb4111374680" class="image-svg-svg primary" style="overflow: visible;"><svg xmlns="http://www.w3.org/2000/svg" viewBox="0 -0.0010010600090026855 50.06999969482422 42.46099853515625"><path d="M6.67 10.31l.15.12a30.12 30.12 0 0 0 5.62 3.35v.21c-.14 4.78 0 9.56-.06 14.34 4 2.53 8.2 4.75 12.27 7.17l.37.36c.09 2.12-.22 4.27.23 6.37v.23C16.85 40.15 8.42 37.92 0 35.68c2-8.51 4.49-16.9 6.67-25.37z" fill="#175bec"></path><path d="M37.71 13.71C41.9 11.49 46 9 50.07 6.66c-2.07 8.08-4.31 16.12-6.43 24.19-.11 1.19-1.36 1.48-2.21 2C36 36 30.63 39.14 25.21 42.23c-.45-2.1-.14-4.25-.23-6.37l.21-.25c3.86-2.16 7.66-4.42 11.51-6.59.39-.3 1.09-.52 1-1.15.04-4.72-.06-9.44.01-14.16z" fill="#198efb"></path><path d="M23.83.57c.52-.24 1.06-.76 1.69-.5q12.29 3.27 24.55 6.59C46 9 41.9 11.49 37.71 13.71l-.17.1C33.41 11.33 29.2 9 25 6.55c-4.23 2.34-8.38 4.83-12.59 7.23a30.12 30.12 0 0 1-5.62-3.35C12.47 7.11 18.18 3.89 23.83.57z" fill="#198efb"></path><path d="M12.44 13.78c4.21-2.4 8.36-4.89 12.56-7.23 4.2 2.45 8.41 4.78 12.54 7.26-4 2.63-8.34 4.75-12.32 7.42-.12 4.79 0 9.59 0 14.38l-.21.25-.37-.36c.17-4.77.27-9.56 0-14.33-2.56-2-5.59-3.33-8.35-5A38.77 38.77 0 0 0 12.4 14z" fill="#87ebff"></path><path d="M37.54 13.81l.17-.1c-.07 4.72 0 9.44 0 14.16.11.63-.59.85-1 1.15-3.85 2.17-7.65 4.43-11.51 6.59 0-4.79-.09-9.59 0-14.38 4-2.67 8.33-4.79 12.34-7.42z" fill="#87ebff"></path></svg></svg> <!----></g></g> <g transform="translate(0,76.38500595092773)"><g data-gra="path-name" fill-rule="" class="tp-name" transform="translate(0,0)"><g transform="scale(1.7000000000000006)"><g><path d="M35.95-28.17L7.65-28.17 7.65-35.64 35.95-35.64 35.95-28.17ZM16.79-5.26L16.79-5.26 28.48-5.26Q28.35-5.67 28.04-7.27 27.72-8.87 27.45-10.73 27.18-12.6 27.22-13.63L27.22-13.63 33.75-13.63Q33.62-13.09 34.09-11.09 34.56-9.09 35.53-7.31 36.49-5.54 37.8-5.26L37.8-5.26 37.98-5.26 37.98 5.54 5.49 5.54 5.49-5.26 6.48-5.26Q7.29-5.44 8.82-7.25 10.35-9.04 11.97-11.61 13.59-14.17 14.31-16.52L14.31-16.52 4.77-16.52 4.77-23.98 38.7-23.98 38.7-16.52 21.38-16.52Q20.52-13.28 19.08-9.88 17.64-6.48 16.79-5.26ZM85.09-23.27L85.09-16.02 70.29-16.02 70.29 5.54 61.47 5.54 61.47-16.02 49.59-16.02 49.59-23.27 61.78-23.27 61.78-38.56 70.56-38.56 70.56-33.57 83.07-33.57 83.07-27 70.56-27 70.56-23.27 85.09-23.27ZM82.98-10.13L82.98-10.13 82.98 0.14Q76.5 0.14 74.18-3.58 71.86-7.29 71.86-12.96L71.86-12.96 77.04-12.96Q77.13-11.79 78.64-10.96 80.14-10.13 82.98-10.13ZM104.94-18.77L104.94 5.54 98.86 5.54 98.86-18.77 95.04-18.77 95.04-26.86 98.86-26.86 98.86-29.56 95.49-29.56 95.49-35.95 97.16-35.95Q100.58-35.95 102.08-36.18 103.59-36.41 103.59-37.35L103.59-37.35 108.31-37.35Q108.31-34.6 107.48-32.96 106.65-31.32 104.94-30.55L104.94-30.55 104.94-26.86 108.41-26.86 108.41-18.77 104.94-18.77ZM132.07-2.07L128.97-2.07 128.97 5.54 121.28 5.54 121.28-2.07 110.34-2.07 110.34-13.09 121.28-13.09 121.28-37.35 128.97-37.35 128.97-13.09 132.07-13.09 132.07-2.07ZM113.22-26.59L112.09-36.45 118.94-36.49 120.02-26.59 113.22-26.59ZM111.91-14.94L110.84-24.93 117.63-24.93 118.84-14.98 111.91-14.94ZM95.76-16.83L95.76-16.83 98.23-16.83Q98.23-8.87 97.97-4.48 97.69-0.09 96.48 2.72 95.27 5.54 92.61 5.54L92.61 5.54 92.61-5.49Q94.14-5.49 94.81-6.73 95.49-7.96 95.63-10.1 95.76-12.24 95.76-16.83ZM109.66-11.07L109.66-11.07 109.66-3.38Q107.73-3.69 106.81-5.6 105.89-7.51 105.66-10.06 105.44-12.6 105.44-16.83L105.44-16.83 107.59-16.83Q107.59-13.81 107.93-12.69 108.27-11.56 109.66-11.07ZM149.76-12.06L149.76-8.55Q149.76-2.21 149.31 0.49 148.86 3.19 147.17 4.37 145.49 5.54 141.53 5.54L141.53 5.54 140.04 5.54 140.04-5.49 141.07-5.49Q141.71-5.49 142.11-6.5 142.51-7.51 142.6-9.95L142.6-9.95 139.28-9 139.28-16.16 142.69-17.19 142.69-23.76 139.46-23.76 139.46-30.69 142.69-30.69 142.69-37.35 149.76-37.35 149.76-30.69 152.73-30.69 152.73-23.76 149.76-23.76 149.76-19.21 152.59-20.02 152.59-12.82 149.76-12.06ZM164.66 1.84L164.66 1.84Q158.9 5.54 151.83 5.54L151.83 5.54 151.83-5.49Q155.03-5.49 157.86-6.12L157.86-6.12Q155.97-9.9 155.66-14.22L155.66-14.22 160.78-14.22Q161.5-10.98 164.43-8.73L164.43-8.73Q168.3-11.52 168.66-15.84L168.66-15.84 154.71-15.84 154.71-22.54 161.06-22.54 161.06-25.65 153.72-25.65 153.72-33.21 161.06-33.21 161.06-37.35 168.93-37.35 168.93-33.21 176.44-33.21 176.44-25.65 168.93-25.65 168.93-22.54 175.09-22.54 175.09-15.84Q175.09-13.41 174.33-10.84 173.56-8.28 172.13-5.85L172.13-5.85Q174.64-5.49 177.34-5.49L177.34-5.49 177.34 5.54Q170.01 5.54 164.66 1.84Z" transform="translate(-4.769999980926514, 38.560001373291016)"></path></g> <!----> <!----> <!----> <!----> <!----> <!----> <!----></g></g> <g data-gra="path-slogan" fill-rule="" class="tp-slogan" fill="#333" transform="translate(5,80.97000885009766)"><rect x="0" height="1" y="4.746387481689453" width="115.97443580627441"></rect> <rect height="1" y="4.746387481689453" width="115.97443580627441" x="167.39455223083496"></rect> <g transform="translate(118.97443580627441,0)"><g transform="scale(1)"><path d="M4.37-8.50L6.70-8.79Q7.30-8.91 7.80-8.68L7.80-8.68Q8.05-8.50 7.88-8.26L7.88-8.26Q7.62-7.96 6.75-7.89L6.75-7.89Q6.66-7.82 6.68-7.61L6.68-7.61Q6.68-7.11 7.15-7.23L7.15-7.23Q8.18-7.28 9.21-7.28L9.21-7.28Q9.68-7.45 9.83-7.38L9.83-7.38Q10.43-6.95 10.62-6.27L10.62-6.27Q10.63-6.09 10.59-6.04L10.59-6.04Q10.28-5.73 9.83-5.88L9.83-5.88Q8.96-6.15 8.66-5.58L8.66-5.58Q8.58-5.45 8.19-5.45L8.19-5.45Q7.84-5.48 7.49-5.61L7.49-5.61Q7.18-5.71 7.36-5.89L7.36-5.89Q7.86-6.38 8.66-5.95L8.66-5.95Q9-6.11 9.15-6.59L9.15-6.59Q9.05-6.79 8.67-6.74L8.67-6.74Q7.50-6.68 6.80-6.57L6.80-6.57Q6.56-6.39 6.66-6.01L6.66-6.01Q6.75-4.99 6.14-4.52L6.14-4.52Q5.84-4.24 5.61-4.70L5.61-4.70Q5.41-5.30 5.51-6.02L5.51-6.02Q5.54-6.53 4.97-6.36L4.97-6.36Q4.20-6.27 3.56-5.93L3.56-5.93Q3.33-5.82 3.09-5.80L3.09-5.80Q2.82-5.84 2.70-5.53L2.70-5.53L2.65-5.17Q2.70-4.76 2.57-4.54L2.57-4.54Q2.30-4.08 1.98-4.03L1.98-4.03Q1.76-4.09 1.77-4.37L1.77-4.37Q1.62-5.40 1.98-6.43L1.98-6.43Q2.11-6.97 2.53-6.67L2.53-6.67Q2.81-6.59 3.23-6.73L3.23-6.73Q4.22-6.93 5.11-7.03L5.11-7.03Q5.70-7.01 5.54-7.49L5.54-7.49Q5.25-7.77 4.91-7.48L4.91-7.48Q4.21-7.29 4.02-8.21L4.02-8.21Q4.10-8.45 4.37-8.50L4.37-8.50ZM3.88-5.68L3.88-5.68Q4.41-5.82 4.85-5.53L4.85-5.53Q5.16-5.10 4.66-5.04L4.66-5.04Q4.31-5.06 3.96-5.13L3.96-5.13Q3.50-5.25 3.46-5.33L3.46-5.33Q3.45-5.41 3.47-5.46L3.47-5.46Q3.66-5.59 3.88-5.68ZM7.72-5.04L7.72-5.04Q8.37-5.13 8.65-4.79L8.65-4.79Q8.80-4.59 8.59-4.39L8.59-4.39Q8.32-4.31 7.59-4.51L7.59-4.51Q7.22-4.68 7.30-4.78L7.30-4.78Q7.44-4.98 7.72-5.04ZM3.74-4.69L3.74-4.69Q4.50-4.86 4.79-4.38L4.79-4.38Q4.88-4.10 4.54-4.05L4.54-4.05Q4.24-4.01 3.63-4.18L3.63-4.18Q3.28-4.32 3.29-4.39L3.29-4.39Q3.54-4.62 3.74-4.69ZM6.01-4.05L6.01-4.05Q6.71-4.17 7.18-4.18L7.18-4.18Q7.49-4.20 7.70-4.01L7.70-4.01Q8.04-3.49 7.35-3.29L7.35-3.29Q5.89-2.85 4.77-2.81L4.77-2.81Q4.28-2.88 4.21-3.27L4.21-3.27Q4.15-3.75 4.61-3.76L4.61-3.76L5.54-3.97Q5.87-4.08 6.01-4.05ZM9.23-2.72L9.23-2.72Q9.54-2.82 9.90-2.59L9.90-2.59Q10.29-2.36 10.27-1.92L10.27-1.92Q10.17-1.41 9.42-1.50L9.42-1.50Q8.71-1.71 7.39-1.50L7.39-1.50L6.46-1.38Q6.13-1.41 5.80-1.01L5.80-1.01Q5.07-0.41 5.16-0.04L5.16-0.04Q5.23 0.08 5.58 0.01L5.58 0.01Q6.05-0.02 6.52-0.11L6.52-0.11Q7.01-0.13 7.22-0.28L7.22-0.28Q7.34-0.36 7.28-0.54L7.28-0.54Q7.22-0.77 7.35-1.01L7.35-1.01Q7.69-1.28 8.26-0.84L8.26-0.84Q9.20-0.20 9.07 0.74L9.07 0.74Q8.99 0.97 8.79 1.21L8.79 1.21Q8.39 1.50 8.19 1.00L8.19 1.00Q8.19 0.84 7.97 0.74L7.97 0.74Q7.65 0.67 6.93 0.83L6.93 0.83Q5.45 1.11 4.11 1.49L4.11 1.49Q3.76 1.65 3.41 1.50L3.41 1.50Q3.16 1.38 3.15 1.18L3.15 1.18Q2.89 0.54 3.68 0.13L3.68 0.13L4.35-0.74Q4.46-0.90 4.39-1.02L4.39-1.02Q4.34-1.05 3.98-1.00L3.98-1.00Q3.28-0.83 2.57-0.62L2.57-0.62Q1.93-0.46 1.77-1.23L1.77-1.23Q1.86-1.63 2.44-1.79L2.44-1.79Q2.91-1.95 4.31-2.14L4.31-2.14Q6.38-2.46 9.23-2.72ZM17.39-8.31L17.39-8.31Q17.86-9.04 18.48-8.30L18.48-8.30Q18.74-7.91 18.71-7.34L18.71-7.34L18.64-6.45Q18.55-5.86 19.08-6.11L19.08-6.11Q19.80-6.38 20.48-5.98L20.48-5.98Q21-5.71 20.63-5.10L20.63-5.10Q20.00-4.44 18.77-4.39L18.77-4.39Q18.46-4.30 18.53-3.91L18.53-3.91Q18.52-2.86 18.54-1.77L18.54-1.77Q18.40-1.23 19.01-1.29L19.01-1.29Q20.17-1.34 21.36-1.43L21.36-1.43Q21.60-1.48 22.07-1.23L22.07-1.23Q22.56-0.89 22.58-0.41L22.58-0.41Q22.68 0.01 22.21 0.20L22.21 0.20Q21.71 0.33 21.27 0.27L21.27 0.27Q20.67 0.18 20.32 0.14L20.32 0.14Q17.26 0.21 14.64 0.61L14.64 0.61Q14.13 0.81 13.72 0.30L13.72 0.30Q13.18-0.48 14.29-0.83L14.29-0.83Q14.71-1.00 15.22-1.01L15.22-1.01Q15.93-1.08 16.63-1.11L16.63-1.11Q17.25-1.09 17.12-1.66L17.12-1.66Q17.10-5.20 17.17-7.37L17.17-7.37Q17.20-7.89 17.39-8.31ZM32.88-8.77L32.88-8.77Q33.15-8.98 33.71-8.71L33.71-8.71Q33.98-8.51 34.07-8.17L34.07-8.17Q34.15-7.78 34.18-7.36L34.18-7.36Q34.39-3.73 34.38-0.23L34.38-0.23Q34.36 0.09 34.20 0.47L34.20 0.47Q34.04 0.94 33.62 0.95L33.62 0.95Q33.46 1.00 33.16 1.34L33.16 1.34Q32.93 1.69 32.60 1.58L32.60 1.58Q32.27 1.46 32.23 1.08L32.23 1.08Q32.10 0.80 31.83 0.70L31.83 0.70Q31.36 0.43 31.75 0.48L31.75 0.48Q32.51 0.62 32.80 0.07L32.80 0.07Q32.96-0.36 32.94-1.39L32.94-1.39Q33.04-6.20 32.86-8.29L32.86-8.29Q32.78-8.64 32.88-8.77ZM28.11-8.20L28.11-8.20Q28.22-8.80 28.71-8.59L28.71-8.59Q29.26-8.26 29.07-7.64L29.07-7.64Q28.91-7.11 29.40-7.24L29.40-7.24Q29.79-7.38 29.99-7.38L29.99-7.38Q30.54-7.22 30.34-6.73L30.34-6.73Q30.15-6.42 29.88-6.35L29.88-6.35Q29.30-6.25 28.91-6.05L28.91-6.05Q28.72-5.80 28.82-5.36L28.82-5.36Q28.88-5.29 29.17-5.30L29.17-5.30Q29.89-5.48 30.45-5.47L30.45-5.47Q30.81-5.41 31.00-5.12L31.00-5.12Q31.22-4.80 30.75-4.68L30.75-4.68Q30.19-4.45 29.34-4.31L29.34-4.31Q28.97-4.27 28.78-4.16L28.78-4.16Q28.70-4.09 28.63-3.70L28.63-3.70Q28.61-3.27 29.10-3.45L29.10-3.45Q29.40-3.45 29.64-3.53L29.64-3.53Q30.15-3.68 30.54-3.16L30.54-3.16Q30.97-2.37 30.66-1.29L30.66-1.29Q30.46-0.76 30.21-0.64L30.21-0.64Q29.95-0.55 29.74-0.32L29.74-0.32Q29.17 0.07 29.11-0.71L29.11-0.71Q29.06-0.83 28.97-0.95L28.97-0.95Q28.84-1.05 29.18-1.14L29.18-1.14Q29.51-1.28 29.52-1.51L29.52-1.51Q29.64-2.05 29.53-2.77L29.53-2.77Q29.51-3.28 28.88-2.89L28.88-2.89Q28.62-2.78 28.61-2.60L28.61-2.60Q28.58-1.89 28.61-1.14L28.61-1.14Q28.64-1.07 28.59-0.97L28.59-0.97Q28.54-0.35 28.56 0.27L28.56 0.27Q28.63 1.02 28.04 1.25L28.04 1.25Q27.98 1.23 27.81 0.88L27.81 0.88Q27.62-0.02 27.73-1.91L27.73-1.91Q27.75-2.16 27.71-2.41L27.71-2.41Q27.64-2.53 27.43-2.46L27.43-2.46Q26.61-2.04 26.92-1.32L26.92-1.32Q27.16-0.88 26.94-0.39Q26.72 0.11 26.31-0.28L26.31-0.28Q26.02-0.63 25.92-1.22L25.92-1.22Q25.80-2.11 26.16-2.86L26.16-2.86Q26.30-3.33 26.72-3.14L26.72-3.14Q26.89-3 27.22-3.08L27.22-3.08Q27.40-3.13 27.57-3.14L27.57-3.14Q27.91-3.26 27.80-3.64L27.80-3.64Q27.76-4.09 27.40-3.88L27.40-3.88Q26.45-3.47 25.73-3.47L25.73-3.47Q25.28-3.63 25.16-4.11L25.16-4.11Q25.34-4.25 25.66-4.34L25.66-4.34Q26.60-4.63 27.54-4.89L27.54-4.89Q27.87-4.98 27.88-5.25L27.88-5.25Q27.95-5.57 27.89-5.78L27.89-5.78Q27.61-5.95 27.25-5.74L27.25-5.74Q27.02-5.65 26.75-5.68L26.75-5.68Q26.38-5.95 26.06-5.60L26.06-5.60Q25.83-5.38 25.59-5.21L25.59-5.21Q25.16-5.02 25.22-5.40L25.22-5.40Q25.80-6.98 26.40-7.66L26.40-7.66Q26.89-8.25 27.26-7.61L27.26-7.61Q27.42-7.32 27.30-7.04L27.30-7.04Q27.19-6.90 27.30-6.71L27.30-6.71Q28.00-6.62 28.00-7.27L28.00-7.27Q28.03-7.73 28.11-8.20ZM31.64-6.15L31.64-6.15Q32.12-6.22 32.19-5.78L32.19-5.78L32.25-4.07Q32.27-3.49 31.97-3.05L31.97-3.05Q31.73-2.72 31.68-2.73L31.68-2.73Q31.38-3.11 31.37-3.95L31.37-3.95Q31.36-4.57 31.38-5.20L31.38-5.20Q31.38-5.32 31.35-5.44L31.35-5.44Q31.24-5.87 31.31-5.98L31.31-5.98Q31.42-6.09 31.64-6.15ZM42.18-8.80L42.18-8.80Q42.41-9.01 42.80-8.71L42.80-8.71Q43.28-8.34 43.25-7.88L43.25-7.88Q43.31-7.51 43.70-7.65L43.70-7.65L44.09-7.73Q44.53-7.86 45.02-7.52L45.02-7.52Q45.48-7.01 44.86-6.68L44.86-6.68L44.39-6.62Q43.92-6.61 43.45-6.52L43.45-6.52Q42.86-6.41 42.93-5.92L42.93-5.92Q42.93-5.37 43.41-5.52L43.41-5.52Q44.72-5.60 46.07-5.65L46.07-5.65Q46.75-5.72 47.11-4.99L47.11-4.99Q47.29-4.39 46.57-4.39L46.57-4.39Q44.93-4.58 43.25-4.54L43.25-4.54Q42.79-4.51 42.80-4.05L42.80-4.05Q42.76-3.80 42.77-3.54L42.77-3.54Q42.89-3.33 43.16-3.35L43.16-3.35Q43.51-3.33 44.10-3.12L44.10-3.12Q44.99-2.87 44.71-2.19L44.71-2.19Q44.63-1.96 44.41-1.91L44.41-1.91Q43.82-1.79 43.14-2.19L43.14-2.19Q42.66-2.55 42.60-2.06L42.60-2.06Q42.50-0.68 42.74 0.66L42.74 0.66Q42.82 1.02 42.49 1.39L42.49 1.39Q41.80 1.91 41.67 0.94L41.67 0.94Q41.41-0.84 41.58-3.70L41.58-3.70Q41.63-4.00 41.59-4.23L41.59-4.23Q41.50-4.37 41.18-4.31L41.18-4.31Q39.98-4.08 39.30-3.80L39.30-3.80Q38.46-3.50 38.13-3.81L38.13-3.81Q37.13-4.79 38.47-5.02L38.47-5.02Q39.79-5.24 41.58-5.40L41.58-5.40Q41.73-5.46 41.75-5.66L41.75-5.66L41.75-7.93Q41.80-8.30 42.18-8.80Z" transform="translate(-1.7245205965909094, 8.887073863636362)"></path></g></g></g></g></g></g><defs v-gra="od"></defs></svg>